<svg width="208" height="63" viewBox="0 0 208 63" fill="none" xmlns="http://www.w3.org/2000/svg">
<rect x="40" y="28" width="144" height="8" fill="#A3C4F3"/>
<path d="M208 32L183 17.5662V46.4338L208 32ZM168 34.5H188V29.5H168V34.5Z" fill="#A3C4F3"/>
<circle cx="25" cy="32" r="19.5" stroke="#A3C4F3" stroke-width="11"/>
<path d="M71.3281 37.9233V21.6364H79.1946V50H71.642V44.848H71.3466C70.7064 46.5099 69.6416 47.8456 68.152 48.8551C66.6747 49.8646 64.8712 50.3693 62.7415 50.3693C60.8456 50.3693 59.1776 49.9384 57.7372 49.0767C56.2969 48.215 55.1705 46.9901 54.358 45.402C53.5578 43.8139 53.1515 41.9119 53.1392 39.696V21.6364H61.0057V38.2926C61.018 39.9669 61.4673 41.2902 62.3537 42.2628C63.2401 43.2353 64.428 43.7216 65.9176 43.7216C66.8655 43.7216 67.7519 43.5062 68.5767 43.0753C69.4015 42.6321 70.0663 41.9796 70.571 41.1179C71.0881 40.2562 71.3404 39.1913 71.3281 37.9233ZM100.574 21.6364V27.5455H83.4925V21.6364H100.574ZM87.3704 14.8409H95.2369V41.2841C95.2369 42.0104 95.3477 42.5767 95.5692 42.983C95.7908 43.3769 96.0986 43.6539 96.4925 43.8139C96.8988 43.974 97.3666 44.054 97.896 44.054C98.2653 44.054 98.6346 44.0232 99.0039 43.9616C99.3732 43.8878 99.6564 43.8324 99.8533 43.7955L101.091 49.6491C100.697 49.7723 100.143 49.9138 99.4286 50.0739C98.7146 50.2462 97.8467 50.3509 96.8249 50.3878C94.9291 50.4616 93.2672 50.2093 91.8391 49.6307C90.4234 49.0521 89.3216 48.1534 88.5337 46.9347C87.7459 45.7159 87.3581 44.1771 87.3704 42.3182V14.8409ZM105.698 50V21.6364H113.564V50H105.698ZM109.65 17.9801C108.48 17.9801 107.477 17.5923 106.64 16.8168C105.815 16.0289 105.402 15.0871 105.402 13.9915C105.402 12.9081 105.815 11.9787 106.64 11.2031C107.477 10.4152 108.48 10.0213 109.65 10.0213C110.819 10.0213 111.816 10.4152 112.641 11.2031C113.478 11.9787 113.897 12.9081 113.897 13.9915C113.897 15.0871 113.478 16.0289 112.641 16.8168C111.816 17.5923 110.819 17.9801 109.65 17.9801ZM127.732 33.6023V50H119.866V21.6364H127.363V26.6406H127.695C128.323 24.991 129.376 23.6861 130.853 22.7259C132.33 21.7533 134.121 21.267 136.227 21.267C138.196 21.267 139.914 21.6979 141.379 22.5597C142.844 23.4214 143.982 24.6525 144.795 26.2528C145.607 27.8409 146.013 29.7367 146.013 31.9403V50H138.147V33.3438C138.159 31.608 137.716 30.2538 136.817 29.2812C135.919 28.2964 134.682 27.804 133.106 27.804C132.047 27.804 131.112 28.0317 130.299 28.4872C129.499 28.9427 128.871 29.6075 128.415 30.4815C127.972 31.3433 127.745 32.3835 127.732 33.6023ZM164.992 61.2273C162.444 61.2273 160.258 60.8764 158.436 60.1747C156.627 59.4853 155.186 58.5436 154.115 57.3494C153.044 56.1553 152.349 54.8134 152.029 53.3239L159.304 52.3452C159.526 52.9115 159.877 53.4408 160.357 53.9332C160.837 54.4257 161.471 54.8196 162.259 55.1151C163.059 55.4228 164.032 55.5767 165.176 55.5767C166.888 55.5767 168.297 55.1581 169.405 54.321C170.525 53.4962 171.086 52.1113 171.086 50.1662V44.9773H170.753C170.409 45.7652 169.891 46.5099 169.202 47.2116C168.513 47.9134 167.626 48.4858 166.543 48.929C165.46 49.3722 164.167 49.5938 162.665 49.5938C160.535 49.5938 158.596 49.1013 156.848 48.1165C155.113 47.1193 153.728 45.599 152.694 43.5554C151.672 41.4995 151.161 38.902 151.161 35.7628C151.161 32.5497 151.684 29.866 152.73 27.7116C153.777 25.5573 155.168 23.9446 156.904 22.8736C158.652 21.8026 160.566 21.267 162.647 21.267C164.235 21.267 165.564 21.5379 166.635 22.0795C167.706 22.6089 168.568 23.2737 169.221 24.0739C169.885 24.8617 170.396 25.6373 170.753 26.4006H171.049V21.6364H178.86V50.277C178.86 52.6899 178.269 54.7088 177.087 56.3338C175.905 57.9588 174.268 59.1776 172.175 59.9901C170.095 60.8149 167.7 61.2273 164.992 61.2273ZM165.158 43.6847C166.426 43.6847 167.497 43.3707 168.371 42.7429C169.257 42.1027 169.935 41.1918 170.402 40.0099C170.882 38.8158 171.123 37.3878 171.123 35.7259C171.123 34.0639 170.889 32.6236 170.421 31.4048C169.953 30.1738 169.276 29.2197 168.39 28.5426C167.503 27.8655 166.426 27.527 165.158 27.527C163.865 27.527 162.776 27.8778 161.89 28.5795C161.003 29.2689 160.332 30.2292 159.877 31.4602C159.421 32.6913 159.194 34.1132 159.194 35.7259C159.194 37.3632 159.421 38.7789 159.877 39.973C160.345 41.1548 161.016 42.072 161.89 42.7244C162.776 43.3646 163.865 43.6847 165.158 43.6847Z" fill="black"/>
<rect x="103" y="28" width="13" height="8" fill="#A3C4F3"/>
<rect x="70" y="28" width="13" height="8" fill="#A3C4F3"/>
<rect x="168" y="28" width="13" height="8" fill="#A3C4F3"/>
</svg>
